# xmcd
#
# Track frame offsets:
#	150
#	9635
#	24652
#	38102
#	51187
#	69252
#	87127
#	100272
#	120622
#	130310
#	149517
#
# Disc length: 2286 seconds
#
# Revision: 1
# Processed by: cddbd v1.5.2PL0 Copyright (c) Steve Scherf et al.
# Submitted via: audiograbber 1.83.01
#
DISCID=9208ec0b
DTITLE=Dalton T. Scott - Based on true stories
DYEAR=1900
DGENRE=Country
TTITLE0=Smokin', drinkin', and damn good luck
TTITLE1=She is the one
TTITLE2=It's nice to come back here
TTITLE3=Slipping through the cracks
TTITLE4=How could such a big star be so lonely
TTITLE5=Let me go crazy
TTITLE6=Singing the blues
TTITLE7=Daddy can I have that pretty dress
TTITLE8=Don't get hung up
TTITLE9=Eight seconds of fame
TTITLE10=Based on true stories
EXTD=
EXTT0=
EXTT1=
EXTT2=
EXTT3=
EXTT4=
EXTT5=
EXTT6=
EXTT7=
EXTT8=
EXTT9=
EXTT10=
PLAYORDER=
